<svg width="24" height="24" viewBox="0 0 24 24" fill="none" xmlns="http://www.w3.org/2000/svg">
<path fill-rule="evenodd" clip-rule="evenodd" d="M5 5L12 2L19 5V12.5C18 20 12 21 12 21C12 21 6 20 5 12.5V5ZM13.1325 9.07651L12.439 7.80489C12.2495 7.45742 11.7505 7.45742 11.561 7.80489L10.8675 9.07651C10.7956 9.20838 10.6682 9.30092 10.5206 9.32857L9.09692 9.59518C8.7079 9.66803 8.55372 10.1425 8.82562 10.4301L9.8207 11.4826C9.92389 11.5918 9.97255 11.7415 9.95322 11.8905L9.76683 13.3269C9.7159 13.7194 10.1195 14.0126 10.4771 13.8429L11.7856 13.2218C11.9213 13.1574 12.0787 13.1574 12.2144 13.2218L13.5229 13.8429C13.8805 14.0126 14.2841 13.7194 14.2332 13.3269L14.0468 11.8905C14.0275 11.7415 14.0761 11.5918 14.1793 11.4826L15.1744 10.4301C15.4463 10.1425 15.2921 9.66803 14.9031 9.59518L13.4794 9.32857C13.3318 9.30092 13.2044 9.20838 13.1325 9.07651Z" fill="#C4C4C4"/>
</svg>
